<svg id="Capa_1" enable-background="new 0 0 192 192" height="512" viewBox="0 0 192 192" width="512" xmlns="http://www.w3.org/2000/svg"><path d="m178.4 188.8h-164.8c-5.744 0-10.4-4.656-10.4-10.4v-140h185.6v140c0 5.744-4.656 10.4-10.4 10.4z" fill="#e7eced"/><path d="m70.4 57.6h102.4v115.2h-102.4z" fill="#ebba16"/><path d="m19.2 57.6h57.6v115.2h-57.6z" fill="#366db6"/><path d="m188.8 41.6h-185.6v-28c0-5.744 4.656-10.4 10.4-10.4h164.8c5.744 0 10.4 4.656 10.4 10.4z" fill="#556080"/><path d="m16 16h12.8v12.8h-12.8z" fill="#dd352e"/><path d="m41.6 16h12.8v12.8h-12.8z" fill="#ebba16"/><path d="m67.2 16h12.8v12.8h-12.8z" fill="#23a24d"/><path d="m57.376 84.31c-.784-3.693-3.853-6.666-7.568-7.344-6.096-1.113-11.408 3.54-11.408 9.434 0 2.627 1.066 4.992 2.778 6.723.522.528.451 1.421-.17 1.827-3.274 2.147-5.498 5.738-5.76 9.856 3.622 2.512 8.013 3.994 12.752 3.994s9.13-1.482 12.749-3.994c-.259-4.122-2.486-7.709-5.76-9.859-.621-.406-.691-1.299-.166-1.827 2.156-2.176 3.286-5.366 2.553-8.81z" fill="#fff"/><path d="m89.6 70.4h70.4v51.2h-70.4z" fill="#fff"/><path d="m140.8 86.4-25.6 35.2h6.4 38.4v-12.8z" fill="#188439"/><path d="m108.8 99.2-19.2 22.4h38.4z" fill="#23a24d"/><g fill="#4d007e"><path d="m177.6 192h-163.2c-7.939 0-14.4-6.461-14.4-14.4v-163.2c0-7.939 6.461-14.4 14.4-14.4h163.2c7.939 0 14.4 6.461 14.4 14.4v163.2c0 7.939-6.461 14.4-14.4 14.4zm-163.2-185.6c-4.41 0-8 3.587-8 8v163.2c0 4.413 3.59 8 8 8h163.2c4.413 0 8-3.587 8-8v-163.2c0-4.413-3.59-8-8-8z"/><path d="m28.8 32h-12.8c-1.766 0-3.2-1.43-3.2-3.2v-12.8c0-1.77 1.434-3.2 3.2-3.2h12.8c1.766 0 3.2 1.43 3.2 3.2v12.8c0 1.77-1.434 3.2-3.2 3.2zm-9.6-6.4h6.4v-6.4h-6.4z"/><path d="m54.4 32h-12.8c-1.766 0-3.2-1.43-3.2-3.2v-12.8c0-1.77 1.434-3.2 3.2-3.2h12.8c1.766 0 3.2 1.43 3.2 3.2v12.8c0 1.77-1.434 3.2-3.2 3.2zm-9.6-6.4h6.4v-6.4h-6.4z"/><path d="m80 32h-12.8c-1.766 0-3.2-1.43-3.2-3.2v-12.8c0-1.77 1.434-3.2 3.2-3.2h12.8c1.766 0 3.2 1.43 3.2 3.2v12.8c0 1.77-1.434 3.2-3.2 3.2zm-9.6-6.4h6.4v-6.4h-6.4z"/><path d="m188.8 44.8h-185.6c-1.766 0-3.2-1.43-3.2-3.2v-27.2c0-7.939 6.461-14.4 14.4-14.4h163.2c7.939 0 14.4 6.461 14.4 14.4v27.2c0 1.77-1.434 3.2-3.2 3.2zm-182.4-6.4h179.2v-24c0-4.413-3.59-8-8-8h-163.2c-4.41 0-8 3.587-8 8z"/><path d="m172.8 176h-153.6c-1.766 0-3.2-1.43-3.2-3.2v-115.2c0-1.77 1.434-3.2 3.2-3.2h153.6c1.766 0 3.2 1.43 3.2 3.2v115.2c0 1.77-1.434 3.2-3.2 3.2zm-150.4-6.4h147.2v-108.8h-147.2z"/><path d="m60.8 128h-25.6c-1.766 0-3.2-1.43-3.2-3.2s1.434-3.2 3.2-3.2h25.6c1.766 0 3.2 1.43 3.2 3.2s-1.434 3.2-3.2 3.2z"/><path d="m60.8 140.8h-25.6c-1.766 0-3.2-1.43-3.2-3.2s1.434-3.2 3.2-3.2h25.6c1.766 0 3.2 1.43 3.2 3.2s-1.434 3.2-3.2 3.2z"/><path d="m60.8 153.6h-25.6c-1.766 0-3.2-1.43-3.2-3.2s1.434-3.2 3.2-3.2h25.6c1.766 0 3.2 1.43 3.2 3.2s-1.434 3.2-3.2 3.2z"/><path d="m48 112c-5.232 0-10.269-1.578-14.573-4.566-.922-.637-1.44-1.712-1.37-2.829.266-4.221 2.246-8.182 5.405-10.966-1.468-2.113-2.262-4.621-2.262-7.239 0-3.805 1.677-7.392 4.605-9.83s6.778-3.446 10.579-2.749c4.998.912 9.066 4.861 10.122 9.824.749 3.52.016 7.12-1.971 9.994 3.158 2.784 5.139 6.746 5.405 10.97.07 1.117-.448 2.192-1.37 2.829-4.301 2.984-9.338 4.562-14.57 4.562zm-9.264-8.79c5.664 3.136 12.864 3.136 18.525 0-.598-2.259-2.026-4.272-4.029-5.584-1.098-.723-1.802-1.888-1.936-3.197-.138-1.322.32-2.621 1.258-3.562 1.539-1.555 2.16-3.702 1.693-5.891-.515-2.419-2.576-4.416-5.011-4.864-1.946-.349-3.846.131-5.331 1.37-1.463 1.222-2.305 3.014-2.305 4.918 0 1.677.659 3.267 1.853 4.467.934.947 1.392 2.243 1.251 3.562-.134 1.306-.842 2.467-1.933 3.19-2.006 1.319-3.437 3.331-4.035 5.591zm18.365-7.84c-.003 0-.003.003-.006.006.003-.003.003-.006.006-.006z"/><path d="m76.8 176h-57.6c-1.766 0-3.2-1.43-3.2-3.2v-115.2c0-1.77 1.434-3.2 3.2-3.2h57.6c1.766 0 3.2 1.43 3.2 3.2v115.2c0 1.77-1.434 3.2-3.2 3.2zm-54.4-6.4h51.2v-108.8h-51.2z"/><path d="m160 124.8h-70.4c-1.766 0-3.2-1.43-3.2-3.2v-51.2c0-1.77 1.434-3.2 3.2-3.2h70.4c1.766 0 3.2 1.43 3.2 3.2v51.2c0 1.77-1.434 3.2-3.2 3.2zm-67.2-6.4h64v-44.8h-64z"/><path d="m128 124.8c-.902 0-1.798-.378-2.432-1.12l-16.768-19.565-16.771 19.565c-1.149 1.347-3.171 1.501-4.512.346-1.341-1.149-1.498-3.168-.346-4.509l19.2-22.4c1.216-1.418 3.645-1.418 4.861 0l19.2 22.4c1.149 1.341.995 3.36-.346 4.509-.608.521-1.347.774-2.086.774z"/><path d="m120.237 115.744c-.691 0-1.392-.224-1.978-.685-1.389-1.094-1.629-3.104-.538-4.493l20.56-26.144c.592-.752 1.491-1.2 2.448-1.222.976.048 1.872.39 2.496 1.12l19.2 22.4c1.149 1.341.995 3.36-.346 4.509s-3.363.998-4.512-.346l-16.666-19.44-18.15 23.082c-.626.8-1.567 1.219-2.514 1.219z"/><path d="m137.6 137.6h-48c-1.766 0-3.2-1.43-3.2-3.2s1.434-3.2 3.2-3.2h48c1.766 0 3.2 1.43 3.2 3.2s-1.434 3.2-3.2 3.2z"/><path d="m160 137.6h-9.6c-1.766 0-3.2-1.43-3.2-3.2s1.434-3.2 3.2-3.2h9.6c1.766 0 3.2 1.43 3.2 3.2s-1.434 3.2-3.2 3.2z"/><path d="m137.6 163.2h-48c-1.766 0-3.2-1.43-3.2-3.2s1.434-3.2 3.2-3.2h48c1.766 0 3.2 1.43 3.2 3.2s-1.434 3.2-3.2 3.2z"/><path d="m160 163.2h-9.6c-1.766 0-3.2-1.43-3.2-3.2s1.434-3.2 3.2-3.2h9.6c1.766 0 3.2 1.43 3.2 3.2s-1.434 3.2-3.2 3.2z"/><path d="m160 150.4h-48c-1.766 0-3.2-1.43-3.2-3.2s1.434-3.2 3.2-3.2h48c1.766 0 3.2 1.43 3.2 3.2s-1.434 3.2-3.2 3.2z"/><path d="m99.2 150.4h-9.6c-1.766 0-3.2-1.43-3.2-3.2s1.434-3.2 3.2-3.2h9.6c1.766 0 3.2 1.43 3.2 3.2s-1.434 3.2-3.2 3.2z"/></g></svg>